<svg xmlns="http://www.w3.org/2000/svg" viewBox="0 0 1654 1654"><defs><radialGradient id="a" cx="50%" cy="45%" r="55%"><stop offset="0%" stop-color="#f9a825"/><stop offset="25%" stop-color="#ef6c00"/><stop offset="55%" stop-color="#d84315"/><stop offset="85%" stop-color="#c62828"/><stop offset="100%" stop-color="#8b1a1a"/></radialGradient></defs><path fill="url(#a)" d="M823.27 7.22c-2.56 3.2-19.31 51.77-26.3 76.28-9.83 34.42-11.06 36.75-18.9 35.82-6.25-.74-6.44-.36-8.6 17.49-5.38 44.26-20.13 59.2-45.1 45.7-12.59-6.8-13.3-5.08-18.87 45.88-4.82 44.01-8.8 57.94-20.19 70.61-14.56 16.2-44.18 7.51-78.9-23.13-3.35-2.95-7.3-6.39-8.77-7.63l-2.68-2.26-.94 2.46c-5.95 15.66-3.4 51.22 7.01 97.8 5.13 22.93 5.18 21.8-.92 21.09-6.07-.72-6.65.44-5.13 10.32 1.8 11.67 7.08 38.74 7.98 40.85.47 1.1 2.51 9.2 4.54 18l5.53 24c1.01 4.4 2.16 9.8 2.54 12s1 4.45 1.4 5c.38.55 1.47 4.82 2.42 9.5.94 4.68 2.43 10.82 3.3 13.66 5.97 19.53-1.3 55.96-12.62 63.17a18 18 0 0 0-3.88 3.4c-.9 1.23-2.66 1.77-5.69 1.77-2.4 0-4.62.4-4.92.87-.3.48-3.14.2-6.31-.62a90 90 0 0 0-10.02-1.97c-2.75-.31-4.25-.98-4.25-1.88 0-.77-.83-1.4-1.85-1.4-1.01 0-2.65-.9-3.65-2s-2.4-2-3.12-2c-.79 0-1.07-.63-.71-1.58.43-1.13.09-1.48-1.26-1.25-1.03.18-1.87-.14-1.89-.7-.02-1.14-4.93-6.09-8.37-8.44-1.18-.81-2.15-1.87-2.15-2.37 0-.49-2.92-3.83-6.5-7.42-3.58-3.6-6.5-6.89-6.5-7.32s-.93-1.08-2.07-1.44c-1.14-.37-1.85-1.24-1.58-1.94.27-.71-.6-1.87-1.93-2.58-1.33-.72-2.42-1.67-2.42-2.12s-4.21-5.5-9.36-11.21a363 363 0 0 1-15.37-18.26c-15.6-20.42-63.42-64.81-78.42-72.78-5.39-2.86-6.44-1.9-7.22 6.57-3.32 36.03-20.13 39.48-60.13 12.32-36.8-24.98-47.72-31.97-50-31.98-.55 0-1.53-.5-2.19-1.11-6.6-6.2-12.82-4.74-15.3 3.6-3.7 12.42-17.39 18.71-25.72 11.83-.66-.54-1.67-.7-2.25-.35-.57.36-1.04.17-1.04-.41s-.4-1.06-.9-1.06-3.8-1.76-7.35-3.92c-7.73-4.7-42.26-22.08-43.85-22.08-.62 0-3.28-1.58-5.9-3.5a76 76 0 0 0-10.14-6.06c-2.95-1.4-7.16-3.66-9.36-5.02-6.2-3.84-29.59-15.42-31.13-15.42-.75 0-1.37-.38-1.37-.84 0-1.02-4.5-3.16-6.64-3.16-1.29 0-13.74-5.69-25.51-11.65-2.73-1.39-8.85-1.86-8.85-.7 0 2 20.27 35.56 35.85 59.35 29.5 45.06 32.44 51.66 26.22 59.04l-3.94 4.66 12.36 18.2c29.65 43.7 30.95 60.05 5.42 68.27-10.47 3.37-11.06 1.7 10.8 30.99 44.59 59.7 51.6 78.55 35.33 94.9-12.65 12.72-39.78 20.09-67.67 18.37-13.52-.83-13.86-.43-7.18 8.48 10.65 14.18 35.57 35.69 62.47 53.9 4.86 3.3 10.84 8.05 13.29 10.58l4.45 4.59-2.8 2.91c-3.8 3.97-2.95 5.92 5.2 11.94 13.46 9.94 46.88 31.37 53.95 34.59 1.79.81 3.25 1.88 3.25 2.37s1.01 1.42 2.25 2.07 4.05 2.27 6.25 3.6c2.2 1.32 5.77 3.39 7.94 4.59 2.16 1.2 4.54 2.79 5.28 3.53a27 27 0 0 0 4.32 3.1c1.63.96 2.96 2.1 2.96 2.54s.83.78 1.85.78 2.95 1.01 4.3 2.25a27 27 0 0 0 4.89 3.5c14.13 7.22 40.02 29.9 47.28 41.42 2.68 4.25 3.93 21.98 1.72 24.2a4.5 4.5 0 0 0-1.04 2.77c0 1.89-9.66 10.54-11.24 10.08-.53-.16-1.53.17-2.2.74-4.33 3.58-26.88 10.62-30.1 9.39-.88-.34-2.58-.11-3.78.5-3.64 1.88-13.4 4.04-15.6 3.46-1.19-.31-2.08-.06-2.08.57s-1.61 1.12-3.59 1.12c-6.7 0-46.87 10.12-53.78 13.54-1.58.79-3.24 1.2-3.68.93-.45-.28-1.1-.05-1.44.51s-1.64 1.02-2.88 1.02c-2.58 0-17.3 4.86-22.88 7.56-4.55 2.2-4.62 3.07-.65 8.05 12.25 15.38 7 22.54-27.77 37.98-9.22 4.1-17.2 7.88-17.75 8.43-.54.54-1.77.98-2.73.98-4.77 0-60 24.15-78.35 34.27-18.71 10.31-34.5 21.2-34.5 23.79 0 1.23 4.46 1.8 23 2.96 75.99 4.72 131.38 14.52 136.93 24.22.86 1.51 1.9 2.75 2.32 2.75 1.1.01.92 5.44-.28 8.58-2.63 6.93-1.25 7.5 26.09 10.9 38.93 4.82 47.7 6.84 55.94 12.88 11.07 8.13 13.05 19.82 6.48 38.27l-3.81 10.7 2.41 1.96c2.33 1.89 3.56 1.93 33.92 1.28 35.96-.79 32.91-.52 91-8.1 21.23-2.78 51.47-2.36 57.6.8 4.88 2.51 14.4 11.78 14.4 14.02 0 .58.74 1.88 1.64 2.88 3.18 3.5 3.11 23.17-.12 38.42-5.84 27.56-10.42 44.54-13.3 49.26-1.57 2.56-5.33 9.84-8.36 16.16a596 596 0 0 1-13.12 25.25c-4.2 7.56-7.2 13.75-6.68 13.75s.94.66.94 1.47c0 5.07 48.69-12.9 81-29.9a268 268 0 0 1 13.5-6.54c6.74-3 9.44-4.64 28.8-17.63 14.38-9.64 21.84-14.24 28.38-17.47 3.4-1.68 6.71-3.7 7.37-4.49 4.8-5.8 19.95 1.66 21.45 10.57 1.3 7.67 3.05 7.54 13.2-1a4.5 4.5 0 0 1 2-1.04c.98-.04 5.3-3.58 5.3-4.34 0-1.02 11.73-11.79 15.03-13.8 6.26-3.8 39.5-38.22 51.96-53.8 6.8-8.5 13.6-16.83 15.1-18.5 11.8-13.07 19.91-22.47 19.91-23.05 0-2.5 20.5-25.45 25.66-28.73 9.88-6.27 9.63-7.87 9.03 59.75-1.3 146.28-22.37 289.01-56.13 380.42-7.03 19.04-7.93 17.03 12.55 27.97 15 8.02 15.5 7.74 19.9-10.89 1.24-5.22 2.61-10.23 3.05-11.13 5.9-12 20.91-100.95 25.47-150.87.82-9.08 2.85-31.12 4.5-49 3.17-34.16 5.84-93.36 6.05-134 .07-12.37.41-26.89.77-32.25s.42-9.75.15-9.75c-.38 0-.26-16.93.17-23.5.04-.55-.2-10.9-.54-23-.38-13.7-.25-22.57.36-23.5.54-.83 1-1.05 1.01-.5s.42.39.89-.36c2.27-3.58 15.12 8.25 29.51 27.18a372 372 0 0 0 16.65 20.18c10.24 11.31 26.95 30.84 33.26 38.88 6.9 8.77 23.76 25.64 41.69 41.7 8.52 7.64 16.45 14.8 17.6 15.9 1.16 1.11 2.57 2.02 3.13 2.02s1.61.7 2.32 1.57c4.11 4.94 9.95 4.94 9.95 0 0-9.12 15.56-19.95 19.5-13.57.34.55 1.6 1 2.8 1 2.17 0 12.67 6.51 36.72 22.75 6.72 4.54 12.81 8.25 13.54 8.25s1.61.47 1.97 1.04 2.85 2 5.55 3.19c2.7 1.18 4.92 2.51 4.92 2.96 0 .44.94.81 2.1.81 1.14 0 3.23.9 4.63 2s3.08 2 3.75 2 2.04.92 3.05 2.04c1.02 1.12 2.42 1.8 3.13 1.54.7-.27 1.58 0 1.95.6 2.26 3.66 70.27 30.82 77.16 30.82 3.09 0 .82-7.06-6.27-19.53a544 544 0 0 1-13.1-24.62 440 440 0 0 0-8.9-17.35c-4.1-7.3-9-23.64-10.92-36.5-.78-5.22-1.95-10.85-2.6-12.5-6.4-16.36 3.56-50.94 15.16-52.62 1.6-.24 2.35-.42 6.88-1.72 11.17-3.2 59.71-.65 93.43 4.89 13.48 2.21 53.68 4.35 71.39 3.79 15.67-.5 16.1-1.1 10.65-15.34-11.87-31.06 1.3-43 54.01-48.97 36.78-4.17 37.99-4.53 35.7-10.84-6.76-18.7 38.76-31.09 134.8-36.68 21.85-1.27 24.39-1.93 22.44-5.83-3.88-7.77-35.5-25.6-73.94-41.7-96.69-40.51-97.13-40.84-83.42-62.2 2.97-4.63 1.88-6.67-4.86-9.08-8.25-2.96-19.56-6.28-22.07-6.46-1.18-.1-2.15-.6-2.15-1.12s-.3-.66-.66-.3-1.15.28-1.75-.18c-3.48-2.67-39.52-11.54-51.09-12.58-7.45-.66-15.5-2.65-15.5-3.82 0-.48-.92-.58-2.05-.23-1.12.36-2.59.23-3.25-.3a5.3 5.3 0 0 0-2.7-.97c-.83-.02-6-1.22-11.5-2.68-39.28-10.39-49.82-32.24-26.92-55.83 11.25-11.6 50.57-41.55 55.42-42.21.53-.08 4.88-2.73 9-5.48a27 27 0 0 1 4.35-2.36c1-.38 7.08-4.11 13.5-8.29 18.05-11.77 21.25-13.82 27.15-17.42 26.15-15.96 35.92-25.25 31.9-30.37-1.04-1.33-1.9-2.72-1.9-3.09 0-1.48 12.14-12.16 16.3-14.32 20.15-10.54 68.66-55.64 66.34-61.68-.48-1.26-3.3-1.51-17.15-1.51-37.36 0-65.26-12.94-68.05-31.58-2.4-15.94 6.94-34.73 37.82-76.1 26.33-35.26 25.27-32.53 14.13-36.36-22.95-7.9-22.5-24.11 1.74-61.75 4.5-7 9.95-15.57 12.1-19.07l3.93-6.36-3.08-3.83c-5.49-6.83 1.14-23.8 19.5-49.94a839 839 0 0 0 13.6-20.01c15.45-23.77 21.95-34.13 25.42-40.5 2.1-3.85 4.16-7.15 4.6-7.33 1.57-.66.77-2.17-1.14-2.17-2.46 0-15.15 4.5-21.06 7.48-2.47 1.24-14.62 7.25-27 13.36-12.37 6.1-26.33 13.42-31 16.26-8.46 5.13-44.58 24.33-65.48 34.8-20.1 10.09-32.82 6.02-36.11-11.54-1.78-9.49-16.25-2.07-66.41 34.03-36.31 26.13-56.57 22.48-60-10.82-.56-5.46-1.2-10.11-1.44-10.34-4.56-4.56-62.32 46.37-87.62 77.27a479 479 0 0 1-14.9 17.19 499 499 0 0 0-11.54 12.95 306 306 0 0 1-11 12.04c-3.85 4-7.15 7.85-7.33 8.55s-.83 1.45-1.45 1.67c-1.84.65-7.72 6.7-7.72 7.94 0 .62-1.46 1.79-3.25 2.6-4.3 1.93-9.17 4.88-9.58 5.81-.19.41-1.31.77-2.5.78-1.2.02-3.3.68-4.67 1.47-11.37 6.5-30.14-1.37-35.74-15-5.81-14.16-7.13-47.79-2.26-58 .52-1.1 1.12-3.8 1.33-6 .22-2.2.85-5.12 1.4-6.5 1.18-2.9 2.99-10.48 8.83-37 5.33-24.23 6.89-30.59 8.48-34.5.92-2.27 5.59-27.3 6.57-35.24.84-6.77-.47-8.51-6.04-8.08l-4.07.32.33-4.5c.17-2.48 1.4-8.55 2.7-13.5 2.42-9.15 7.38-34.48 9.59-49 1.61-10.6 1.62-36.46 0-43.75-2.14-9.71-4.17-9.56-15.74 1.2-48.67 45.23-87.13 35.87-94.3-22.95-.57-4.68-1.96-17.05-3.08-27.5-3.34-31.09-6.96-48.5-10.08-48.5-.64 0-4.5 1.84-8.56 4.08-6.14 3.39-8.62 4.17-14.66 4.63l-7.27.55-5.05-5.54c-10.07-11.01-15.01-23.32-18.97-47.22-3.1-18.75-2.08-16.88-9.18-16.95-7.19-.06-6.6 1.08-17.28-33.8-19.5-63.66-26.87-82.3-30.68-77.53"/><path fill="#fff" fill-rule="evenodd" d="M760.55 552.79c-.96.95-4.36 8.73-7.52 17.21a218 218 0 0 1-4.88 12c-1.15 2.48-4.17 9.9-6.71 16.5a536 536 0 0 1-5.97 15c-.74 1.65-4.1 9.98-7.5 18.5a675 675 0 0 1-8.47 20.58 88 88 0 0 0-3.57 9.25c-.68 2.3-1.62 4.17-2.09 4.17s-.77.34-.68.75-.17 1.65-.56 2.75c-2.26 6.25-13.25 33.92-18.07 45.5a2451 2451 0 0 0-17.57 43.5c-3.5 8.86-15.22 37.94-34.28 85-6.9 17.05-14.17 35.05-16.15 40a1631 1631 0 0 1-5.66 14c-1.14 2.75-4.01 9.95-6.4 16a2578 2578 0 0 1-23 56.5c-3.11 7.42-6.68 16.2-7.93 19.5s-3.65 9.38-5.33 13.5c-1.69 4.13-5.3 13.13-8.05 20-2.74 6.88-7.3 18.13-10.16 25-9.43 22.75-16 39.7-16 41.28 0 .4 27.74.62 61.65.48l61.65-.26 2.3-6c1.26-3.3 5.28-13.65 8.93-23 11.66-29.85 19.17-49.64 24.34-64.12 7.59-21.29 11.28-30.85 12.1-31.36 1.33-.82 218.5-.47 219.83.36.66.4 1.2 1.19 1.2 1.74s2.71 8.06 6.03 16.7c3.32 8.62 7.14 18.6 8.49 22.18 8 21.18 19.87 52.01 27.54 71.5l4.73 12 61.6.23c38.73.14 61.61-.13 61.61-.73 0-1.14-6.68-17.98-40.44-102l-12.25-30.5c-1.98-4.95-5.85-14.4-8.6-21s-6.9-16.95-9.22-23c-3.76-9.8-9.15-23.13-24.2-60-2.48-6.05-7.2-17.75-10.5-26-17.23-43.13-26.28-65.55-32.28-80a1931 1931 0 0 1-12.51-31 1223 1223 0 0 0-9.03-22.5c-1.74-4.12-4.71-11.33-6.6-16s-3.84-9.4-4.34-10.5c-1.07-2.3-12.62-31.26-14.57-36.5a345 345 0 0 0-4.97-12 3024 3024 0 0 1-20.93-51.02 242 242 0 0 0-5.43-12.74l-1.2-2.23-63.87.07c-35.13.03-64.16.35-64.51.7m63.06 108.27-4.69 14.45a508 508 0 0 1-5.01 15c-1.52 3.74-14.7 40.98-15.93 45-.67 2.2-2.8 7.83-4.73 12.5a620 620 0 0 0-8.93 23.97 534 534 0 0 1-6.76 18.5 942 942 0 0 0-9.12 25.03 2729 2729 0 0 1-14 38.5c-3.4 9.08-6.06 16.65-5.9 16.83.49.56 151.57.4 152.13-.17.56-.55-.89-4.89-7.72-23.16A9096 9096 0 0 1 871.5 789c-1.3-3.58-5.01-13.7-8.27-22.5s-8.91-24.33-12.57-34.5a1797 1797 0 0 0-8.59-23.5 373 373 0 0 1-4.6-13c-1.48-4.4-3.27-9.35-3.98-11-1.74-4-5.48-16.09-5.49-17.7 0-2.34-3.84-7.37-4.38-5.75"/></svg>